<svg xmlns="http://www.w3.org/2000/svg" viewBox="0 0 236.21 233.95"><defs><style>.cls-1{fill:#b3b3b3;}.cls-2,.cls-4{fill:#fff;}.cls-2,.cls-3{stroke:#fff;stroke-miterlimit:10;}.cls-3{fill:none;}</style></defs><g id="Layer_1" data-name="Layer 1"><polygon class="cls-1" points="117.17 233.94 95.25 155.32 137.34 155.94 117.17 233.94"/><polygon class="cls-2" points="117.53 203.56 117.58 160.5 129.8 160.52 117.53 203.56"/><polygon class="cls-1" points="236.21 116.78 156.86 140.4 157 97.77 236.21 116.78"/><polygon class="cls-2" points="205.44 116.96 161.84 117.69 161.72 105.32 205.44 116.96"/><circle class="cls-1" cx="117.41" cy="117.28" r="45.41"/><path class="cls-3" d="M164.31,136.36" transform="translate(-16.39 -15.25)"/><path class="cls-3" d="M150.14,151.34" transform="translate(-16.39 -15.25)"/><line class="cls-3" x1="150.84" y1="133.51" x2="147.92" y2="121.11"/><path class="cls-3" d="M150.81,114.93" transform="translate(-16.39 -15.25)"/><path class="cls-3" d="M142.47,110" transform="translate(-16.39 -15.25)"/><path class="cls-3" d="M140.61,152.21" transform="translate(-16.39 -15.25)"/><path class="cls-3" d="M127.48,152.14" transform="translate(-16.39 -15.25)"/><path class="cls-3" d="M150.14,151.34" transform="translate(-16.39 -15.25)"/><path class="cls-3" d="M140.55,155.84" transform="translate(-16.39 -15.25)"/><line class="cls-3" x1="117.25" y1="125.77" x2="117.21" y2="125.7"/><path class="cls-3" d="M128.1,156.06" transform="translate(-16.39 -15.25)"/><path class="cls-3" d="M123.53,155" transform="translate(-16.39 -15.25)"/><path class="cls-3" d="M123.53,155" transform="translate(-16.39 -15.25)"/><ellipse class="cls-2" cx="117.58" cy="118.77" rx="35.6" ry="36.55"/><circle class="cls-1" cx="117.6" cy="117.88" r="23.74"/><line class="cls-3" x1="139.4" y1="127.28" x2="147.92" y2="121.11"/><polyline class="cls-4" points="141.33 110.36 134.27 100.27 134.95 100.27 105.47 118.46 102.36 128.13 112.95 127.61 152.22 104.18 152.22 103.99 141.26 91.54"/><rect class="cls-1" x="149.92" y="124.3" width="24.18" height="12.33" transform="matrix(0.83, -0.56, 0.56, 0.83, -61.73, 98.7)"/><rect class="cls-1" x="160.46" y="131.95" width="22.61" height="12.44" transform="translate(246.77 -77.68) rotate(75.68)"/></g><g id="logo"><polygon class="cls-1" points="116.64 0 138.65 78.6 96.55 78.03 116.64 0"/><polygon class="cls-2" points="116.31 30.39 116.31 73.44 104.09 73.44 116.31 30.39"/><polygon class="cls-1" points="0 117.14 78.9 96.24 77.73 138.32 0 117.14"/><polygon class="cls-2" points="30.38 117.9 73.43 118.5 73.26 130.72 30.38 117.9"/></g></svg>